# xmcd
#
# Track frame offsets: 
#        155
#        13175
#        27075
#        41700
#        61042
#        89907
#        111587
#        128612
#        143610
#        157692
#
# Disc length: 2437 seconds
#
# Revision: 6
# Processed by: cddbd v1.5.2PL0 Copyright (c) Steve Scherf et al.
# Submitted via: ExactAudioCopy v1.3
#
DISCID=7d09830a
DTITLE=Al Green - Greatest Hits
DYEAR=1975
DGENRE=Soul, Rhythm and Blues
TTITLE0=Tired Of Being Alone
TTITLE1=Call Me (Come Back Home)
TTITLE2=I'm Still In Love With You
TTITLE3=Here I Am (Come And Take Me)
TTITLE4=How Can You Mend A Broken Heart
TTITLE5=Let's Stay Together
TTITLE6=I Can't Get Next To You
TTITLE7=You Ought To Be With Me
TTITLE8=Look What You Done For Me
TTITLE9=Let's Get Married
EXTD=
EXTT0=
EXTT1=
EXTT2=
EXTT3=
EXTT4=
EXTT5=
EXTT6=
EXTT7=
EXTT8=
EXTT9=
PLAYORDER=
